<svg xmlns="http://www.w3.org/2000/svg" viewBox="0 0 460.067 460.067"><path d="M454.165 154.398c-.111-22.012-18.11-39.92-40.122-39.92h-73.949a62.948 62.948 0 012.22 16.245l.674 134.227c.073 14.404-7.867 27.011-19.623 33.599v141.027c0 11.236 9.109 20.345 20.345 20.345 11.236 0 20.345-9.108 20.345-20.345V281.348a4.392 4.392 0 118.786.001v158.229c0 11.236 9.108 20.345 20.345 20.345 11.236 0 20.345-9.108 20.345-20.345 0-269.024-.36-115.048-.369-284.913a3.55 3.55 0 017.096-.095l.626 124.557c.047 9.335 7.628 16.869 16.952 16.869h.087c9.363-.047 16.916-7.676 16.869-17.039l-.627-124.559zM368.676 103.277c19.39 0 35.138-15.746 35.138-35.138 0-19.407-15.732-35.139-35.138-35.139s-35.138 15.732-35.138 35.139c0 19.399 15.756 35.138 35.138 35.138zM117.079 264.95l.674-134.227a62.892 62.892 0 012.219-16.245h-73.95c-22.013 0-40.011 17.908-40.121 39.921l-.625 124.556c-.047 9.363 7.505 16.992 16.869 17.039h.087c9.323 0 16.905-7.534 16.952-16.869l.626-124.557c.016-3.163 2.445-6.183 6.547-6.183l.008 291.19c0 11.236 9.109 20.345 20.345 20.345 11.236 0 20.345-9.108 20.345-20.345V281.348a4.392 4.392 0 118.786.001v158.229c0 11.236 9.108 20.345 20.345 20.345 11.236 0 20.345-9.108 20.345-20.345V298.449c-11.662-6.616-19.524-19.166-19.452-33.499zM56.538 68.139c0 10.49 4.602 19.9 11.892 26.339 6.195 5.472 14.33 8.799 23.246 8.799 19.405 0 35.138-15.731 35.138-35.138C126.815 48.732 111.083 33 91.676 33c-19.411 0-35.138 15.738-35.138 35.139zM207.013 67.803a37.692 37.692 0 0023.174 7.93c20.839 0 37.866-16.906 37.866-37.866C268.054 16.877 250.991 0 230.187 0c-20.907 0-37.866 16.948-37.866 37.867 0 11.642 5.293 22.652 14.692 29.936zM279.077 87.803H180.99c-17.792 0-33.149 10.856-39.767 26.291a42.905 42.905 0 00-3.47 16.729l-.674 134.227v.001c-.051 10.091 8.088 18.311 18.179 18.362h.094c10.047 0 18.218-8.12 18.269-18.179l.674-134.228v-.016a3.528 3.528 0 017.055.027l.008 307.125v.001c0 12.108 9.816 21.925 21.925 21.925s21.925-9.816 21.925-21.925V267.629a4.733 4.733 0 119.466 0v170.514c0 12.108 9.816 21.925 21.925 21.925s21.925-9.816 21.925-21.925v-.001c0-78.408-.376-225.029-.397-307.113a3.824 3.824 0 017.647-.033v.011l.674 134.228c.051 10.06 8.22 18.179 18.268 18.179h.094c10.09-.051 18.23-8.271 18.179-18.362v-.001l-.674-134.227c-.121-23.741-19.536-43.021-43.238-43.021z"/></svg>