<svg xmlns="http://www.w3.org/2000/svg" xmlns:xlink="http://www.w3.org/1999/xlink" viewBox="0 0 2160 2160">
	<path id="A" d="M1592.35 1083.3l-276.12-298.9-103.47-101.2c-44.16-43.2-100.96-82.2-152.35-110.62-73.1-40.4-148.43-61.62-228.32-66.88 55.28-17.3 168-18.36 211.6-5.42 62.3 18.5 100.77 44.1 151.25 84.95 35.6 28.8 95.73 97.27 127.52 136.62L1558 1013.43c3.4 4.2 6.46 8.64 9.1 13.35 8.22 14.77 14.76 31.82 25.26 56.53zm26.87 155.5c-157.85-127.66-424.78-332.4-476.94-366.54-66.47-43.52-161.52-99.94-230.43-125.94-47.22-17.82-93.04-30.7-137.55-37.77-96.02-15.24-158.65-15.72-253.24-4.1 98.04-64.6 222.34-71.15 320.8-46.1 92.98 23.66 164.6 62.1 251.15 119.67 116.02 77.2 363.34 287.72 398.05 313.93l96.76 81.94c16.5 13.97 30.53 43.08 31.4 64.68v.24zm-9.72-76.13l-455.1-400.73C1017.42 656.16 945.65 632.1 832.38 606.2c-40.85-9.34-127.78-16.47-199.4-11.63 100.57-49.3 206.8-47.78 304.4-20.04 90.67 25.78 155.65 67.9 230 130.95 105.16 89.18 276.93 266.53 309.96 296.62l104.76 102.3c15.78 15.4 25.57 36 27.4 57.97v.3zm-528.4 467.3c-52.74 50.13-83.93 60.12-143.12 86.93-42.48 19.24-114.7 27.07-170.53 20.42 84-25.04 175.63-75.7 254.63-142.58 104.85-88.77 193.77-189.4 255.6-263.7 62.06-78.92 109.9-139.8 154.55-206.94l24.26 17.48c-75.45 110.63-125.84 194.25-212 301.3-55.37 68.8-91.8 119.04-163.4 187.1zm329.7-521.16c-21.2 20.44-87.38 114.08-170.65 208.83-61.88 70.4-128.87 139.64-181.36 183.5-74.83 62.5-122.28 104.2-222.17 151-92 43.1-173.07 54.12-276.6 21.26 42.18-2.58 144.3-30.5 191-51.12 136.93-60.47 178.35-86.25 312.8-199.87 52.04-45 96.6-89.4 144.92-141.6 68.66-74.16 111.2-111.42 176.28-190.94l25.78 18.96zm-73.08-51.42l23.44 18.05c-34.36 43.68-251.95 254.47-363.87 346.05-75.46 61.74-147.94 108.75-236.6 147.48-93.92 41.03-204.54 57.6-306.38 19.84 125.87-17.35 238.58-58.12 330.7-105.3 66.7-34.15 146.13-81.06 198.6-122.54 76.86-55.64 116.38-90.52 187.9-151.84 66.63-57.12 101.37-92.56 166.18-151.74zm178.95-123.47l-24.28-28.3c96.13-91.3 38.7-231.16 38.7-231.16 74.6 107.93 18.5 224.37-14.43 259.47zm43.12 49.52l-22.7-26.7c87.1-110.83 34.63-240.56 34.1-242 76.5 98.08 15.94 241.1-11.4 268.7zm-129.43-177.3c-2.26-28.6 21.44-52.3 50.05-50.05 22.5 1.78 40.74 20 42.52 42.52 2.26 28.6-21.44 52.3-50.05 50.05-22.5-1.77-40.74-20-42.52-42.52zm96.8 558.45c32.42-75.5 16.9-133.83 4.38-163.42l31.64 26.7c12.85 91.54-36.02 136.73-36.02 136.73zm88.7-100.76c-1.02 13.65-18.12 119.92-127.35 158.74 1.18-1.4 111.15-79.82 94.28-182.96l33.07 24.22z" />
	<clipPath id="B">
		<use xlink:href="#A" />
	</clipPath>
	<linearGradient id="C" gradientUnits="userSpaceOnUse" x1="434.817" y1="1114.968" x2="1643.559" y2="1114.968">
		<stop offset="0" stop-color="#4dc6e4" />
		<stop offset="1" stop-color="#0383b1" />
	</linearGradient>
	<path d="M434.82 457.78h1208.74v1314.37H434.82z" clip-path="url(#B)" fill="url(#C)" />
</svg>