<svg xmlns="http://www.w3.org/2000/svg" xmlns:xlink="http://www.w3.org/1999/xlink" viewBox="0 0 1063.89 1024.23"><defs><style>.cls-1{fill:none;}.cls-2{clip-path:url(#clip-path);}.cls-3{fill:url(#linear-gradient);}.cls-4{clip-path:url(#clip-path-2);}.cls-5{fill:url(#linear-gradient-2);}</style><clipPath id="clip-path"><path class="cls-1" d="M869.69,376.24c-45.8-50.18-166.08-179.77-166.08-179.77L641.37,135.6c-26.56-26-60.72-49.45-91.63-66.54A322.39,322.39,0,0,0,412.41,28.84c33.25-10.41,101.05-11,127.27-3.26,37.47,11.12,60.61,26.53,91,51.09,21.41,17.32,57.58,58.5,76.7,82.17L849,334.2a56.83,56.83,0,0,1,5.47,8C859.44,351.12,863.37,361.37,869.69,376.24Zm16.16,93.51C790.91,393,630.36,269.83,599,249.29c-40-26.17-97.15-60.11-138.6-75.75-28.4-10.72-56-18.47-82.73-22.72-57.75-9.17-95.42-9.45-152.32-2.47,59-38.86,133.73-42.8,193-27.72,55.92,14.23,99,37.35,151.06,72C639.13,239,787.88,365.66,808.76,381.43L867,430.71c9.92,8.4,18.36,25.91,18.88,38.9ZM880,424l-273.73-241c-82.39-63.63-125.56-78.1-193.69-93.68-24.57-5.62-76.86-9.91-119.93-7,60.49-29.65,124.39-28.74,183.08-12,54.54,15.5,93.62,40.83,138.35,78.76,63.25,53.64,166.56,160.31,186.43,178.41l63,61.53A55.12,55.12,0,0,1,880,423.79ZM562.19,705c-31.72,30.15-50.48,36.16-86.08,52.29-25.55,11.57-69,16.28-102.57,12.28,50.52-15.06,105.64-45.53,153.15-85.75,63.07-53.4,116.55-113.92,153.73-158.61,37.33-47.47,66.1-84.08,93-124.46L788,411.29c-45.38,66.54-75.69,116.83-127.51,181.23C627.16,633.88,605.25,664.1,562.19,705ZM760.5,391.57c-12.75,12.3-52.56,68.62-102.64,125.6-37.22,42.35-77.51,84-109.08,110.36-45,37.59-73.55,62.66-133.63,90.81-55.34,25.93-104.09,32.55-166.37,12.79,25.37-1.55,86.79-18.34,114.88-30.75C446,664,470.93,648.5,551.8,580.16,583.1,553.1,609.9,526.39,639,495c41.3-44.61,66.88-67,106-114.84Zm-44-30.92,14.1,10.86C710,397.78,579.1,524.57,511.78,579.65c-45.39,37.14-89,65.41-142.31,88.71C313,693,246.45,703,185.19,680.29c75.71-10.43,143.5-35,198.91-63.33,40.11-20.54,87.89-48.76,119.46-73.7,46.23-33.47,70-54.44,113-91.33C656.67,417.56,677.56,396.24,716.54,360.65Zm107.64-74.27-14.6-17c57.82-54.92,23.28-139,23.28-139C877.72,195.23,844,265.27,824.18,286.38Zm25.93,29.78-13.65-16.05c52.39-66.66,20.83-144.69,20.5-145.56C903,213.54,866.55,299.57,850.11,316.16ZM772.27,209.52a27.93,27.93,0,1,1,25.58,25.56A27.94,27.94,0,0,1,772.27,209.52Zm58.22,335.89c19.5-45.4,10.16-80.5,2.63-98.29l19,16.05C859.88,518.23,830.49,545.41,830.49,545.41Zm53.34-60.61c-.61,8.21-10.9,72.13-76.6,95.47.71-.84,66.85-48,56.71-110Z"/></clipPath><linearGradient id="linear-gradient" x1="173.47" y1="254.82" x2="900.49" y2="254.82" gradientTransform="matrix(1, 0, 0, -1, 0, 650.1)" gradientUnits="userSpaceOnUse"><stop offset="0" stop-color="#4dc6e4"/><stop offset="1" stop-color="#0383b1"/></linearGradient><clipPath id="clip-path-2"><path class="cls-1" d="M40.7,848.31v23.57h59.35v22.88H40.7v26h65.55v22.88h-91V825.43h91v22.88Zm149.16,36,43.35,59.35H203.1l-28.21-38.71-28.56,38.71H116.91l43.18-58.84-43.18-59.35h29.93l28.39,38.71,28.39-38.71h29.59Zm43.53.17c0-33.2,28.9-61.07,62.79-61.07a63.26,63.26,0,0,1,45.93,19.78L323.7,859.67c-6.88-7.91-16.69-13.25-27.53-13.25-19.78,0-36.64,17.55-36.64,38,0,20.65,16.86,38.19,36.64,38.19,10.84,0,20.64-5.33,27.53-13.25l18.41,16.52a63.94,63.94,0,0,1-45.93,19.78C262.3,945.68,233.39,917.64,233.39,884.44Zm149.85-36.13v23.57h59.35v22.88H383.24v26h65.55v22.88h-91V825.43h91v22.88ZM551.5,920.74v22.88H467.2V825.43h25.46v95.31ZM611.71,923l43.53-33.72c14.11-11.18,18.58-18.92,18.58-27.18,0-9.81-8.26-15.66-17.89-15.66-11.53,0-20.3,5.85-28.9,15.66l-16.17-15.66c11.7-14.79,26.67-23,45.76-23,25.12,0,43.35,15.48,43.35,37.68,0,15.83-6.88,28-27.53,43l-21.5,16.69H701v22.88H611.71V923ZM717,884.44c0-35.78,21.85-61.07,53-61.07s53.16,25.29,53.16,61.07c0,36-22,61.24-53.16,61.24S717,920.39,717,884.44Zm80,0c0-22.19-11-38-27-38-15.83,0-27,15.83-27,38s11.18,38.19,27,38.19C786,922.63,797,906.63,797,884.44ZM838.29,923l43.53-33.72c14.11-11.18,18.58-18.92,18.58-27.18,0-9.81-8.26-15.66-17.89-15.66-11.53,0-20.3,5.85-28.9,15.66l-16.17-15.66c11.7-14.79,26.67-23,45.76-23,25.12,0,43.35,15.48,43.35,37.68,0,15.83-6.88,28-27.53,43l-21.5,16.69h50.06v22.88H838.29V923Zm105.29-38.53c0-35.78,21.85-61.07,53-61.07s53.16,25.29,53.16,61.07c0,36-22,61.24-53.16,61.24S943.58,920.39,943.58,884.44Zm80,0c0-22.19-11-38-27-38-15.83,0-27,15.83-27,38s11.18,38.19,27,38.19C1012.56,922.63,1023.57,906.63,1023.57,884.44Z"/></clipPath><linearGradient id="linear-gradient-2" x1="1063.89" y1="-262.48" x2="0" y2="-262.48" xlink:href="#linear-gradient"/></defs><title>Logo</title><g id="Layer_2" data-name="Layer 2"><g id="Layer_1-2" data-name="Layer 1"><g class="cls-2"><rect class="cls-3" x="173.47" width="727.02" height="790.55"/></g><g class="cls-4"><rect class="cls-5" y="800.94" width="1063.89" height="223.29"/></g></g></g></svg>