<svg xmlns="http://www.w3.org/2000/svg" xmlns:xlink="http://www.w3.org/1999/xlink" viewBox="0 0 1063.89 1021.9"><defs><style>.cls-1{fill:none;}.cls-2{clip-path:url(#clip-path);}.cls-3{fill:url(#linear-gradient);}.cls-4{clip-path:url(#clip-path-2);}.cls-5{fill:url(#linear-gradient-2);}</style><clipPath id="clip-path"><path class="cls-1" d="M856.94,376.24c-45.8-50.18-166.08-179.77-166.08-179.77L628.62,135.6c-26.56-26-60.72-49.45-91.63-66.54A322.39,322.39,0,0,0,399.66,28.84c33.25-10.41,101-11,127.27-3.26,37.47,11.12,60.61,26.53,91,51.09,21.41,17.32,57.58,58.5,76.7,82.17L836.28,334.2a56.83,56.83,0,0,1,5.47,8C846.69,351.12,850.62,361.37,856.94,376.24Zm16.16,93.51C778.16,393,617.61,269.83,586.23,249.29c-40-26.17-97.15-60.11-138.6-75.75-28.4-10.72-56-18.47-82.73-22.72-57.75-9.17-95.42-9.45-152.32-2.47,59-38.86,133.73-42.8,193-27.72,55.92,14.23,99,37.35,151.06,72C626.38,239,775.13,365.66,796,381.43l58.2,49.28c9.92,8.4,18.36,25.91,18.88,38.9ZM867.26,424l-273.73-241C511.14,119.31,468,104.84,399.84,89.26c-24.57-5.62-76.86-9.91-119.93-7C340.4,52.62,404.3,53.53,463,70.22c54.54,15.5,93.62,40.83,138.35,78.76,63.25,53.64,166.56,160.31,186.43,178.41l63,61.53a55.12,55.12,0,0,1,16.47,34.87ZM549.44,705c-31.72,30.15-50.48,36.16-86.08,52.29-25.55,11.57-69,16.28-102.57,12.28,50.52-15.06,105.64-45.53,153.15-85.75C577,630.45,630.49,569.93,667.67,525.24c37.33-47.47,66.1-84.08,93-124.46l14.59,10.51c-45.38,66.54-75.69,116.83-127.51,181.23C614.41,633.88,592.5,664.1,549.44,705ZM747.75,391.57c-12.75,12.3-52.56,68.62-102.64,125.6-37.22,42.35-77.51,84-109.08,110.36-45,37.59-73.55,62.66-133.63,90.81C347.06,744.27,298.31,750.89,236,731.13c25.37-1.55,86.79-18.34,114.88-30.75C433.27,664,458.18,648.5,539.05,580.16c31.3-27.06,58.1-53.77,87.16-85.17,41.3-44.61,66.88-67,106-114.84Zm-44-30.92,14.1,10.86C697.22,397.78,566.35,524.57,499,579.65c-45.39,37.14-89,65.41-142.31,88.71C300.23,693,233.7,703,172.44,680.29c75.71-10.43,143.5-35,198.91-63.33,40.11-20.54,87.89-48.76,119.46-73.7,46.23-33.47,70-54.44,113-91.33C643.92,417.56,664.81,396.24,703.79,360.65Zm107.64-74.27-14.6-17c57.82-54.92,23.28-139,23.28-139C865,195.23,831.23,265.27,811.43,286.38Zm25.93,29.78-13.65-16.05c52.39-66.66,20.83-144.69,20.5-145.56C890.22,213.54,853.8,299.57,837.36,316.16ZM759.52,209.52a27.93,27.93,0,1,1,25.58,25.56A27.94,27.94,0,0,1,759.52,209.52Zm58.22,335.89c19.5-45.4,10.16-80.5,2.63-98.29l19,16.05C847.13,518.23,817.74,545.41,817.74,545.41Zm53.34-60.61c-.61,8.21-10.9,72.13-76.6,95.47.71-.84,66.85-48,56.71-110Z"/></clipPath><linearGradient id="linear-gradient" x1="160.72" y1="254.82" x2="887.74" y2="254.82" gradientTransform="matrix(1, 0, 0, -1, 0, 650.1)" gradientUnits="userSpaceOnUse"><stop offset="0" stop-color="#4dc6e4"/><stop offset="1" stop-color="#0383b1"/></linearGradient><clipPath id="clip-path-2"><path class="cls-1" d="M16.67,970.85h4.56v31H16.67Zm11.92,0h4.56L51,994.38V970.85h4.56v31H51L33.15,978.35v23.53H28.59Zm32.62,26.56L64,994a14.35,14.35,0,0,0,10.21,4.34c4.29,0,6.5-2.26,6.5-4.74,0-2.94-2.57-4.06-7.77-5.24-6.32-1.49-10.52-3.39-10.52-9,0-5.19,4.52-9.12,10.75-9.12a16.46,16.46,0,0,1,11.34,4.38l-2.62,3.43a13.38,13.38,0,0,0-8.9-3.79c-3.48,0-5.92,2.21-5.92,4.7,0,2.89,2.66,3.89,7.77,5.1,6.19,1.44,10.48,3.52,10.48,9.08,0,5.24-4,9.21-11.29,9.21A17.89,17.89,0,0,1,61.21,997.41Zm29.67-26.56h13.05c6.55,0,11.52,4.2,11.52,10.12s-5,10.12-11.52,10.12H95.44v10.8H90.88Zm12.43,16c4.47,0,7.5-2.21,7.5-5.87s-3-5.87-7.5-5.87H95.45v11.74Zm16.94-16h4.56v31h-4.56Zm28,19.78,7.9,11.25h-5.24l-7.59-10.8h-7.14v10.8h-4.56v-31h13c6.55,0,11.52,4.2,11.52,10.12C156.2,985.75,153,989.41,148.25,990.63Zm-12.06-3.79h7.86c4.47,0,7.5-2.21,7.5-5.87s-3-5.87-7.5-5.87h-7.86ZM166,975.09v8.85h16.44v4.25H166v9.44h18.2v4.25H161.4v-31h22.81v4.25H166Zm115.77-6.77h3.3v36.9h-3.3Zm102,2.53h4.56v31h-4.56Zm11.92,0h4.56l17.84,23.53V970.85h4.56v31h-4.56l-17.84-23.53v23.53h-4.56Zm34.83,0h4.56l17.84,23.53V970.85h4.56v31h-4.56l-17.84-23.53v23.53h-4.56Zm33.07,15.49a16.09,16.09,0,1,1,16.13,16.08A16.3,16.3,0,0,1,463.56,986.34Zm27.51,0c0-6.41-5.2-11.83-11.38-11.83s-11.43,5.42-11.43,11.83,5.24,11.88,11.43,11.88S491.07,992.8,491.07,986.34Zm39.75-15.49-13.33,31h-5.06l-13.33-31h5.06L515,996l10.8-25.16Zm22.32,24.71H537l-2.71,6.32H529.2l13.33-31h5.06l13.33,31h-5.06Zm-1.76-4.11-6.32-14.72-6.32,14.72Zm19.83-16.36H561.05v-4.25H586v4.25H575.77v26.79h-4.56Zm24.57,0v8.85h16.44v4.25H595.78v9.44H614v4.25H591.17v-31H614v4.25h-18.2Zm115.78-6.77h3.3v36.9h-3.3Zm106.52,6.77v8.85h16.44v4.25H818.08v9.44h18.2v4.25H813.47v-31h22.81v4.25h-18.2Zm24.48-4.24h4.56L865,994.38V970.85h4.56v31H865l-17.84-23.53v23.53h-4.56Zm48.61,14.32H904v12.38a18,18,0,0,1-12.2,4.88,16.06,16.06,0,1,1,0-32.12,17.81,17.81,0,0,1,12.2,4.88l-3.21,3.07a12.92,12.92,0,0,0-9-3.75,11.86,11.86,0,0,0,0,23.71,13.22,13.22,0,0,0,7.68-2.57v-6.5h-8.31Zm19.33-14.32h4.56v31H910.5Zm11.93,0H927l17.84,23.53V970.85h4.56v31h-4.56L927,978.35v23.53h-4.56Zm38.89,4.24v8.85h16.44v4.25H961.32v9.44h18.2v4.25H956.71v-31h22.81v4.25h-18.2Zm28.55,0v8.85h16.44v4.25H989.87v9.44h18.2v4.25H985.26v-31h22.81v4.25h-18.2Zm40.56,15.54,7.9,11.25h-5.24l-7.59-10.8h-7.14v10.8h-4.56v-31h13c6.55,0,11.52,4.2,11.52,10.12C1038.38,985.75,1035.13,989.41,1030.43,990.63Zm-12.06-3.79h7.86c4.47,0,7.5-2.21,7.5-5.87s-3-5.87-7.5-5.87h-7.86ZM40.7,846v23.57h59.35v22.88H40.7v26h65.55v22.88h-91V823.1h91V846Zm149.16,36,43.35,59.35H203.1l-28.21-38.71-28.56,38.71H116.91l43.18-58.84L116.91,823.1h29.93l28.39,38.71,28.39-38.71h29.59Zm43.53.17c0-33.2,28.9-61.07,62.79-61.07a63.26,63.26,0,0,1,45.93,19.78L323.7,857.34c-6.88-7.91-16.69-13.25-27.53-13.25-19.78,0-36.64,17.55-36.64,38,0,20.65,16.86,38.19,36.64,38.19,10.84,0,20.64-5.33,27.53-13.25l18.41,16.52a63.94,63.94,0,0,1-45.93,19.78C262.3,943.35,233.39,915.31,233.39,882.11ZM383.24,846v23.57h59.35v22.88H383.24v26h65.55v22.88h-91V823.1h91V846ZM551.5,918.41v22.88H467.2V823.1h25.46v95.31Zm60.21,2.23,43.53-33.72c14.11-11.18,18.58-18.92,18.58-27.18,0-9.81-8.26-15.66-17.89-15.66-11.53,0-20.3,5.85-28.9,15.66l-16.17-15.66c11.7-14.79,26.67-23.05,45.76-23.05,25.12,0,43.35,15.48,43.35,37.68,0,15.83-6.88,28-27.53,43l-21.5,16.69H701v22.88H611.71V920.64ZM717,882.11c0-35.78,21.85-61.07,53-61.07s53.16,25.29,53.16,61.07c0,36-22,61.24-53.16,61.24S717,918.06,717,882.11Zm80,0c0-22.19-11-38-27-38-15.83,0-27,15.83-27,38s11.18,38.19,27,38.19C786,920.3,797,904.3,797,882.11Zm41.29,38.53,43.53-33.72c14.11-11.18,18.58-18.92,18.58-27.18,0-9.81-8.26-15.66-17.89-15.66-11.53,0-20.3,5.85-28.9,15.66l-16.17-15.66C849.14,829.29,864.11,821,883.2,821c25.12,0,43.35,15.48,43.35,37.68,0,15.83-6.88,28-27.53,43l-21.5,16.69h50.06v22.88H838.29V920.64Zm105.29-38.53c0-35.78,21.85-61.07,53-61.07s53.16,25.29,53.16,61.07c0,36-22,61.24-53.16,61.24S943.58,918.06,943.58,882.11Zm80,0c0-22.19-11-38-27-38-15.83,0-27,15.83-27,38s11.18,38.19,27,38.19C1012.56,920.3,1023.57,904.3,1023.57,882.11Z"/></clipPath><linearGradient id="linear-gradient-2" x1="1063.89" y1="-260.15" x2="0" y2="-260.15" xlink:href="#linear-gradient"/></defs><title>logoformobile</title><g id="Layer_2" data-name="Layer 2"><g id="Layer_1-2" data-name="Layer 1"><g class="cls-2"><rect class="cls-3" x="160.72" width="727.02" height="790.55"/></g><g class="cls-4"><rect class="cls-5" y="798.61" width="1063.89" height="223.29"/></g></g></g></svg>